<svg width="163" height="38" fill="none" xmlns="http://www.w3.org/2000/svg">
    <path fill-rule="evenodd" clip-rule="evenodd" d="M42.6675 17.3772L45.5259 3.23669H48.9852L47.8776 8.69565H49.2006L53.2971 3.23669H57.3117L51.8982 10.1795V10.2189L54.4168 17.3772H50.7361L48.9033 11.6421H47.2798L46.1298 17.3772H42.6675Z" fill="#00B1C9"/>
    <path fill-rule="evenodd" clip-rule="evenodd" d="M37.1385 3.20027C25.3376 3.20027 24.6791 3.19724 24.3665 3.19724C24.0085 3.19724 23.7839 3.19724 23.4866 3.19724C22.995 3.19724 22.3031 3.20027 20.4673 3.2033L17.2083 3.21241L15.8974 3.21544L15.6577 4.49901L14.6078 10.1097H6.53618H5.23441L4.98558 11.3963L0.364133 35.1438L0 37.0252H1.91777H10.4506H14.2983H22.7097H24.9522L24.1936 34.9102L23.7748 33.7449L23.6717 33.4567L22.2849 29.5908C22.7613 29.6363 23.2408 29.6606 23.7202 29.6606C25.2101 29.6606 26.6575 29.436 28.0291 28.9566C29.3491 28.4953 30.5841 27.8035 31.7068 26.8568C32.8175 25.9191 33.7065 24.8388 34.3923 23.6433C35.0933 22.4143 35.5788 21.064 35.861 19.6135L38.6891 5.08466L39.0563 3.2033H37.1385V3.20027ZM14.2983 33.8572H10.4506H3.83553L7.83795 13.2746H15.069H18.2218H25.0675L17.2811 22.7026L16.7107 23.3945L17.0141 24.2441L20.4673 33.8572H14.2983ZM32.7568 19.0158C32.5413 20.1203 32.1742 21.1429 31.6462 22.0684C31.1394 22.9545 30.484 23.7525 29.6677 24.4413C28.8454 25.1362 27.9472 25.6399 26.9913 25.9737C25.9809 26.3257 24.8824 26.4896 23.7202 26.4896C22.7947 26.4896 21.9026 26.3955 21.062 26.1801L20.2883 24.0256L29.6434 12.6981L31.7827 10.1067H28.4236H18.2218H17.8182L18.5192 6.36215L20.4643 6.35609C22.3001 6.35002 22.9919 6.35002 23.4835 6.35002C23.7809 6.35002 24.0054 6.35002 24.3635 6.35002C26.0476 6.35305 29.4735 6.36215 35.2177 6.36519L32.7568 19.0158Z" fill="#00B1C9"/>
    <path fill-rule="evenodd" clip-rule="evenodd" d="M69.4555 4.72963C68.2448 3.57958 66.6365 3 64.6338 3C63.2106 3 61.8542 3.37627 60.5707 4.12578C59.2871 4.87528 58.2523 5.89789 57.4725 7.18146C56.6926 8.46502 56.2951 9.84266 56.283 11.3053C56.2678 13.1502 56.8626 14.6644 58.0672 15.8448C59.2719 17.0252 60.8741 17.6139 62.8799 17.6139C64.2909 17.6139 65.6412 17.2315 66.9217 16.4668C68.2053 15.7022 69.2492 14.6644 70.0411 13.3626C70.8331 12.0578 71.2367 10.6589 71.2489 9.16901C71.264 7.36656 70.6632 5.88272 69.4555 4.72963ZM66.1965 12.959C65.2285 13.9513 64.1422 14.452 62.9406 14.452C62.0181 14.452 61.2686 14.1394 60.692 13.5234C60.1185 12.9044 59.8303 12.0972 59.8394 11.1111C59.8515 9.75466 60.34 8.5864 61.2989 7.62145C62.2608 6.65346 63.3502 6.16795 64.564 6.16795C65.4865 6.16795 66.239 6.46533 66.8125 7.05704C67.386 7.64876 67.6743 8.43165 67.6652 9.39053C67.6561 10.7712 67.1645 11.9637 66.1965 12.959Z" fill="#00B1C9"/>
    <path fill-rule="evenodd" clip-rule="evenodd" d="M70.9087 17.3772L71.3608 15.2015L78.1458 7.46974C78.3795 7.20271 78.6192 6.96298 78.8437 6.74754C79.0683 6.53209 79.2352 6.38037 79.3414 6.30148L79.4992 6.18313V6.14369C79.2079 6.18313 78.8498 6.20438 78.4311 6.20438H73.4273L74.0038 3.23669H84.685L84.2329 5.37294L77.3903 13.1441C77.1627 13.4021 76.9351 13.6448 76.7136 13.8572C76.489 14.0666 76.3161 14.2153 76.2159 14.2912L76.0369 14.4307V14.4702C76.3403 14.4307 76.7045 14.4095 77.1263 14.4095H82.5245L81.9267 17.3772H70.9087Z" fill="#00B1C9"/>
    <path fill-rule="evenodd" clip-rule="evenodd" d="M87.0698 17.3772L88.2411 11.5814L85.3584 3.23364H89.0968L90.0193 6.63525L90.4593 8.67136H90.4987C90.9145 7.97344 91.3362 7.29372 91.7611 6.63525L93.9428 3.23364H98.097L91.664 11.7179L90.5321 17.3741H87.0698V17.3772Z" fill="#00B1C9"/>
    <path fill-rule="evenodd" clip-rule="evenodd" d="M106.448 9.98224V9.94279C107.122 9.5999 107.662 9.12046 108.062 8.51054C108.46 7.89758 108.663 7.26035 108.669 6.60187C108.675 5.89182 108.484 5.26672 108.099 4.73266C107.713 4.20163 107.167 3.80109 106.457 3.5553C105.841 3.34289 105.016 3.23972 103.987 3.23972H99.4385L96.5801 17.3802H102.376C103.244 17.3802 103.999 17.2679 104.633 17.0646C105.662 16.7308 106.503 16.1937 107.149 15.4412C107.792 14.6917 108.12 13.7723 108.129 12.692C108.135 12.0881 107.999 11.5328 107.726 11.0413C107.456 10.5466 107.028 10.1916 106.448 9.98224ZM103.687 14.1758C103.414 14.3427 103.086 14.4125 102.716 14.4125H100.64L101.235 11.4843H103.332C103.738 11.4843 104.051 11.5875 104.26 11.7908C104.47 11.9941 104.573 12.2641 104.57 12.5919C104.564 13.2776 104.272 13.8147 103.687 14.1758ZM104.682 8.23137C104.403 8.55302 104.033 8.71688 103.571 8.71688H101.79L102.303 6.20436H104.024C104.746 6.20436 105.11 6.51691 105.104 7.1329C105.101 7.53952 104.961 7.90972 104.682 8.23137Z" fill="#00B1C9"/>
    <path fill-rule="evenodd" clip-rule="evenodd" d="M119.238 3.23669H115.263L107.795 17.3772H111.494L112.942 14.4095H117.351L117.624 17.3772H121.086L119.238 3.23669ZM114.307 11.6421L115.673 8.89289C115.964 8.30117 116.31 7.48794 116.701 6.45927H116.741L116.841 8.89289L117.096 11.6421H114.307Z" fill="#00B1C9"/>
    <path fill-rule="evenodd" clip-rule="evenodd" d="M124.172 17.3772L125.344 11.5814L122.461 3.23364H126.199L127.122 6.63525L127.562 8.67136H127.601C128.017 7.97344 128.439 7.29372 128.864 6.63525L131.045 3.23364H135.2L128.767 11.7179L127.635 17.3741H124.172V17.3772Z" fill="#00B1C9"/>
    <path fill-rule="evenodd" clip-rule="evenodd" d="M133.686 17.3772H142.822L143.42 14.4125H137.746L138.28 11.7422H142.57L143.186 8.77454H138.896L139.409 6.20438H144.81L145.405 3.23669H136.565L133.686 17.3772Z" fill="#00B1C9"/>
    <path fill-rule="evenodd" clip-rule="evenodd" d="M148.421 17.3772L146.254 3.23669H149.953L150.821 11.2871L150.903 13.5629H150.943C151.307 12.6404 151.625 11.8788 151.929 11.2871L156.065 3.23669H160L152.138 17.3772H148.421Z" fill="#00B1C9"/>
    <path fill-rule="evenodd" clip-rule="evenodd" d="M39.4685 33.0015C39.4715 32.6313 39.514 32.2489 39.5959 31.8545L41.3832 23.0151H44.8455L43.037 31.9546C42.9945 32.1518 42.9732 32.3369 42.9732 32.5069C42.9702 33.0591 43.1492 33.487 43.5164 33.7813C43.8836 34.0787 44.3903 34.2274 45.0367 34.2274C45.8013 34.2274 46.4386 34.0332 46.9514 33.6448C47.4612 33.2564 47.7919 32.692 47.9437 31.9546L49.7522 23.0151H53.2145L51.3847 32.0547C51.057 33.663 50.3105 34.9557 49.1483 35.9297C47.9861 36.9068 46.5691 37.3923 44.894 37.3923C43.3374 37.3923 42.0417 37.0039 41.0069 36.2271C39.9692 35.4472 39.4563 34.373 39.4685 33.0015Z" fill="#00B1C9"/>
    <path fill-rule="evenodd" clip-rule="evenodd" d="M53.2026 37.1556H56.6649L58.0001 30.5709C58.1245 29.9761 58.2277 29.172 58.3157 28.1585H58.3551L58.4522 28.553C58.5159 28.817 58.61 29.1508 58.7314 29.5513C58.8528 29.9549 58.965 30.2917 59.0712 30.5709L61.6718 37.1556H65.0157L67.8741 23.0151H64.4119L63.0767 29.6211C62.9523 30.2159 62.843 31.02 62.7429 32.0335H62.7035L62.6094 31.639C62.5457 31.375 62.4546 31.0412 62.3393 30.6407C62.224 30.2371 62.1148 29.9003 62.0116 29.6211L59.4323 23.0151H56.0702L53.2026 37.1556Z" fill="#00B1C9"/>
    <path fill-rule="evenodd" clip-rule="evenodd" d="M68.0171 37.1556L70.8725 23.0151H74.3348L71.4764 37.1556H68.0171Z" fill="#00B1C9"/>
    <path fill-rule="evenodd" clip-rule="evenodd" d="M77.8453 37.1556L75.6787 23.0151H79.3777L80.2455 31.0655L80.3275 33.3413H80.3669C80.7311 32.4189 81.0588 31.6603 81.3531 31.0655L85.4891 23.0151H89.4247L81.5625 37.1556H77.8453Z" fill="#00B1C9"/>
    <path fill-rule="evenodd" clip-rule="evenodd" d="M88.0322 37.1556H97.1689L97.7637 34.191H92.0893L92.6233 31.5207H96.914L97.53 28.553H93.2393L93.7521 25.9828H99.1535L99.7482 23.0151H90.9089L88.0322 37.1556Z" fill="#00B1C9"/>
    <path fill-rule="evenodd" clip-rule="evenodd" d="M110.933 29.4117C111.428 28.4953 111.68 27.5547 111.686 26.5928C111.698 24.9966 111 23.9164 109.595 23.3489C109.043 23.1244 108.351 23.0121 107.519 23.0121H102.261L99.4023 37.1526H102.865L103.833 32.3855H105.571L107.116 37.1526H110.833L109.052 32.2672C108.909 31.8575 108.794 31.5753 108.703 31.4175V31.3781C109.695 30.9866 110.439 30.3281 110.933 29.4117ZM107.486 28.8504C107.067 29.2327 106.542 29.4239 105.908 29.4239H104.424L105.122 25.9828H106.685C107.134 25.9828 107.486 26.0921 107.741 26.3106C107.996 26.529 108.123 26.8416 108.12 27.2512C108.117 27.934 107.905 28.468 107.486 28.8504Z" fill="#00B1C9"/>
    <path fill-rule="evenodd" clip-rule="evenodd" d="M111.837 35.3744L113.913 32.9226C114.304 33.3049 114.808 33.6144 115.418 33.8511C116.031 34.0878 116.638 34.2062 117.245 34.2062C117.667 34.2062 118.058 34.103 118.413 33.8997C118.771 33.6964 118.95 33.3808 118.953 32.959C118.956 32.695 118.777 32.4341 118.416 32.1792C118.055 31.9212 117.618 31.6633 117.105 31.3993C116.592 31.1353 116.08 30.8349 115.561 30.4981C115.042 30.1613 114.605 29.7061 114.247 29.1326C113.889 28.5591 113.713 27.9097 113.719 27.1845C113.728 25.8524 114.265 24.7842 115.327 23.9801C116.389 23.176 117.618 22.7724 119.014 22.7724C121.044 22.7724 122.649 23.3186 123.826 24.414L121.948 26.9721C121.608 26.6959 121.156 26.4592 120.598 26.259C120.039 26.0617 119.481 25.9616 118.929 25.9616C118.507 25.9616 118.11 26.0678 117.739 26.2772C117.369 26.4866 117.181 26.79 117.178 27.1875C117.175 27.4242 117.305 27.6548 117.569 27.8794C117.83 28.1039 118.161 28.3072 118.553 28.4923C118.947 28.6774 119.369 28.905 119.824 29.1751C120.276 29.4451 120.698 29.7364 121.092 30.0459C121.487 30.3555 121.812 30.7651 122.073 31.2719C122.334 31.7786 122.461 32.343 122.455 32.962C122.446 34.188 121.936 35.2318 120.929 36.0966C119.921 36.9614 118.665 37.3923 117.16 37.3923C116.158 37.3923 115.166 37.2224 114.189 36.8795C113.209 36.5366 112.426 36.0359 111.837 35.3744Z" fill="#00B1C9"/>
    <path fill-rule="evenodd" clip-rule="evenodd" d="M123.79 37.1556H127.249L130.107 23.0151H126.648L123.79 37.1556Z" fill="#00B1C9"/>
    <path fill-rule="evenodd" clip-rule="evenodd" d="M133.242 37.1556L135.506 25.9828H131.233L131.828 23.0151H143.835L143.238 25.9828H138.965L136.704 37.1556H133.242Z" fill="#00B1C9"/>
    <path fill-rule="evenodd" clip-rule="evenodd" d="M145.565 37.1556L146.737 31.3599L143.854 23.0121H147.592L148.515 26.4137L148.955 28.4498H148.994C149.41 27.7519 149.829 27.0722 150.257 26.4137L152.438 23.0121H156.593L150.16 31.4964L149.028 37.1526H145.565V37.1556Z" fill="#00B1C9"/>
</svg>